# Blender 4.1.1
# www.blender.org
mtllib 픽쳐프레임.mtl
o Framed_modern_painting_3
v -0.500255 -0.435502 0.022799
v -0.500255 0.435548 0.022798
v 0.500048 -0.435502 0.022801
v 0.500048 0.435548 0.022800
v -0.518383 0.453677 -0.000000
v 0.518176 0.453677 0.000001
v -0.504631 -0.439878 0.040001
v -0.503383 -0.438630 0.038753
v -0.504154 -0.439400 0.039906
v -0.503749 -0.438996 0.039635
v -0.503478 -0.438725 0.039230
v 0.504425 -0.439878 0.040002
v 0.503176 -0.438630 0.038754
v 0.503947 -0.439400 0.039907
v 0.503542 -0.438996 0.039637
v 0.503271 -0.438725 0.039232
v -0.503383 0.438677 0.038752
v -0.504631 0.439925 0.040000
v -0.503478 0.438772 0.039229
v -0.503749 0.439042 0.039634
v -0.504154 0.439447 0.039905
v 0.504425 0.439925 0.040001
v 0.503176 0.438677 0.038753
v 0.503947 0.439447 0.039906
v 0.503542 0.439042 0.039636
v 0.503271 0.438772 0.039231
v -0.518383 -0.453630 0.039140
v -0.517522 -0.452769 0.040001
v -0.518317 -0.453564 0.039470
v -0.518131 -0.453378 0.039749
v -0.517852 -0.453099 0.039935
v 0.518176 -0.453630 0.039142
v 0.517316 -0.452769 0.040002
v 0.518111 -0.453564 0.039471
v 0.517924 -0.453378 0.039750
v 0.517645 -0.453099 0.039937
v -0.517522 0.452816 0.040000
v -0.518383 0.453677 0.039139
v -0.517852 0.453145 0.039934
v -0.518131 0.453424 0.039748
v -0.518317 0.453611 0.039469
v 0.518176 0.453677 0.039141
v 0.517316 0.452816 0.040001
v 0.518111 0.453611 0.039470
v 0.517924 0.453424 0.039749
v 0.517645 0.453145 0.039936
v -0.518383 -0.452743 0.000001
v -0.518383 -0.453630 0.000888
v -0.518383 -0.453082 0.000068
v -0.518383 -0.453370 0.000261
v -0.518383 -0.453562 0.000549
v 0.518176 -0.453630 0.000890
v 0.518176 -0.452743 0.000002
v 0.518176 -0.453562 0.000550
v 0.518176 -0.453370 0.000262
v 0.518176 -0.453082 0.000070
v -0.503383 -0.438630 0.022799
v -0.503383 0.438677 0.022798
v 0.503176 -0.438630 0.022801
v 0.503176 0.438677 0.022800
v -0.500255 -0.435502 0.036414
v -0.499631 -0.434878 0.037038
v -0.500184 -0.435431 0.036607
v -0.500074 -0.435321 0.036781
v -0.499936 -0.435183 0.036919
v -0.499783 -0.435030 0.037007
v -0.499631 0.434924 0.037037
v -0.500255 0.435548 0.036413
v -0.499783 0.435077 0.037006
v -0.499936 0.435229 0.036918
v -0.500074 0.435367 0.036780
v -0.500184 0.435477 0.036606
v 0.500048 -0.435502 0.036416
v 0.499424 -0.434878 0.037039
v 0.499977 -0.435430 0.036608
v 0.499867 -0.435321 0.036782
v 0.499729 -0.435183 0.036920
v 0.499577 -0.435030 0.037009
v 0.500048 0.435548 0.036415
v 0.499424 0.434924 0.037038
v 0.499977 0.435477 0.036607
v 0.499867 0.435367 0.036781
v 0.499729 0.435229 0.036919
v 0.499577 0.435077 0.037008
vn 1.0000 -0.0000 -0.0000
vn -1.0000 -0.0000 -0.0000
vn -0.0000 1.0000 -0.0000
vn -0.0000 -1.0000 -0.0000
vn -0.0000 -0.0000 1.0000
vn 0.9808 -0.0000 0.1949
vn 0.8314 -0.0000 0.5557
vn 0.5558 -0.0000 0.8313
vn 0.1950 -0.0000 0.9808
vn -0.0000 0.9808 0.1951
vn -0.0000 0.8314 0.5557
vn -0.0000 0.5557 0.8314
vn -0.0000 0.1949 0.9808
vn -0.9808 -0.0000 0.1952
vn -0.8314 -0.0000 0.5557
vn -0.5556 -0.0000 0.8315
vn -0.1953 -0.0000 0.9807
vn -0.0000 -0.9808 0.1951
vn -0.0000 -0.8314 0.5556
vn -0.0000 -0.5554 0.8316
vn -0.0000 -0.1949 0.9808
vn -0.0000 -0.0000 -1.0000
vn -0.1950 -0.0000 0.9808
vn -0.8315 -0.0000 0.5555
vn -0.9808 -0.0000 0.1951
vn -0.0000 -0.1950 0.9808
vn -0.0000 -0.5557 0.8313
vn -0.0000 -0.8315 0.5555
vn -0.0000 -0.9808 0.1950
vn 0.1951 -0.0000 0.9808
vn 0.5557 -0.0000 0.8314
vn 0.8314 -0.0000 0.5556
vn 0.9808 -0.0000 0.1951
vn -0.0000 0.8314 0.5556
vn -0.0000 0.9807 0.1953
vn -0.0000 -0.9808 -0.1952
vn -0.0000 -0.8315 -0.5556
vn -0.0000 -0.5557 -0.8314
vn -0.0000 -0.1948 -0.9808
vn -0.1967 -0.0000 0.9805
vn -0.5023 -0.0000 0.8647
vn -0.7071 -0.0000 0.7071
vn -0.8453 -0.0000 0.5343
vn -0.9383 -0.0000 0.3459
vn -0.0000 -0.1967 0.9805
vn -0.0000 -0.5023 0.8647
vn -0.0000 -0.7071 0.7071
vn -0.0000 -0.8452 0.5344
vn -0.0000 -0.9383 0.3459
vn 0.1967 -0.0000 0.9805
vn 0.5023 -0.0000 0.8647
vn 0.7072 -0.0000 0.7070
vn 0.8452 -0.0000 0.5345
vn 0.9383 -0.0000 0.3459
vn -0.0000 0.1967 0.9805
vn -0.0000 0.5021 0.8648
vn -0.0000 0.5020 0.8648
vn -0.0000 0.7071 0.7071
vn -0.0000 0.8453 0.5344
vn -0.0000 0.9382 0.3461
vt 0.496164 0.973517
vt 0.496163 0.026519
vt 0.530104 0.026481
vt 0.530735 0.026528
vt 0.531270 0.026661
vt 0.531628 0.026862
vt 0.531753 0.027098
vt 0.531754 0.973477
vt 0.620830 0.952539
vt 0.620831 0.047391
vt 0.651939 0.047294
vt 0.651938 0.952442
vt 0.443046 0.047459
vt 0.443047 0.952608
vt 0.411939 0.952705
vt 0.411939 0.047556
vt 0.323399 0.298070
vt 0.323399 0.950868
vt 0.300963 0.950917
vt 0.300964 0.298119
vt 0.278158 0.950854
vt 0.278156 0.298042
vt 0.300592 0.297993
vt 0.300595 0.950805
vt 0.222513 0.275391
vt 0.222516 0.973519
vt 0.189991 0.973519
vt 0.189991 0.275391
vt 0.272834 0.297106
vt 0.272837 0.951803
vt 0.225440 0.972869
vt 0.225437 0.276041
vt 0.449443 0.953465
vt 0.449442 0.046575
vt 0.493213 0.027121
vt 0.493213 0.972918
vt 0.328720 0.951804
vt 0.328720 0.297121
vt 0.376117 0.276056
vt 0.376116 0.972869
vt 0.379041 0.973519
vt 0.379042 0.275406
vt 0.410058 0.275406
vt 0.410063 0.973519
vt 0.619133 0.952611
vt 0.619133 0.047330
vt 0.616394 0.952553
vt 0.616395 0.047405
vt 0.615184 0.953091
vt 0.615185 0.046867
vt 0.614435 0.953424
vt 0.614436 0.046534
vt 0.324624 0.297996
vt 0.324624 0.950937
vt 0.326599 0.298063
vt 0.326599 0.950861
vt 0.327909 0.297481
vt 0.327909 0.951443
vt 0.444744 0.047388
vt 0.444745 0.952669
vt 0.447483 0.047445
vt 0.447484 0.952594
vt 0.448693 0.046908
vt 0.448693 0.953132
vt 0.276933 0.950928
vt 0.276931 0.297973
vt 0.274958 0.950861
vt 0.274955 0.298048
vt 0.273649 0.951443
vt 0.273646 0.297467
vt 1.069802 -0.335877
vt 1.069802 1.336971
vt -0.069802 1.336971
vt -0.069802 -0.335877
vt 0.570665 0.027081
vt 0.570664 0.972877
vt 0.570148 0.973107
vt 0.570148 0.026851
vt 0.569314 0.973302
vt 0.569314 0.026656
vt 0.568326 0.973433
vt 0.568327 0.026527
vt 0.567714 0.973479
vt 0.567714 0.026482
vt 0.376677 0.275807
vt 0.376676 0.973117
vt 0.377579 0.275596
vt 0.377579 0.973328
vt 0.378482 0.275455
vt 0.378482 0.973469
vt 0.493729 0.026891
vt 0.493730 0.973148
vt 0.494563 0.026697
vt 0.494564 0.973343
vt 0.495551 0.026566
vt 0.495552 0.973472
vt 0.224881 0.973117
vt 0.224878 0.275792
vt 0.223978 0.973328
vt 0.223975 0.275581
vt 0.223075 0.973469
vt 0.223072 0.275440
vt 0.410635 0.275406
vt 0.410640 0.973519
vt 0.411565 0.275406
vt 0.411570 0.973519
vt -0.069802 -0.336971
vt 1.069802 -0.336971
vt 1.069802 -0.336296
vt -0.069802 -0.336296
vt 0.532123 0.973519
vt 0.532124 0.027141
vt 0.532249 0.026904
vt 0.532607 0.026703
vt 0.533142 0.026568
vt 0.533773 0.026520
vt 0.997592 0.003891
vt 0.997592 0.996109
vt 0.002408 0.003891
vt 0.002408 0.996109
vt 0.000000 1.000000
vt 0.000000 0.000000
vt 1.000000 0.000000
vt 1.000000 1.000000
vt 0.002888 0.004667
vt 0.002888 0.995333
vt 0.002771 0.995522
vt 0.002771 0.004478
vt 0.002654 0.995712
vt 0.002654 0.004288
vt 0.002478 0.995996
vt 0.002478 0.004004
vt 0.002436 0.996065
vt 0.002436 0.003935
vt 0.997111 0.004667
vt 0.997229 0.004478
vt 0.997346 0.004288
vt 0.997522 0.004004
vt 0.997564 0.003935
vt 0.997111 0.995333
vt 0.997229 0.995522
vt 0.997346 0.995712
vt 0.997522 0.995996
vt 0.997564 0.996065
s 0
usemtl Poster_cubista.002
f 42/1/1 32/2/1 52/3/1 54/4/1 55/5/1 56/6/1 53/7/1 6/8/1
f 17/9/1 8/10/1 57/11/1 58/12/1
f 13/13/2 23/14/2 60/15/2 59/16/2
f 8/17/3 13/18/3 59/19/3 57/20/3
f 23/21/4 17/22/4 58/23/4 60/24/4
f 38/25/3 42/26/3 6/27/3 5/28/3
f 18/29/5 22/30/5 43/31/5 37/32/5
f 22/33/5 12/34/5 33/35/5 43/36/5
f 12/37/5 7/38/5 28/39/5 33/40/5
f 32/41/4 27/42/4 48/43/4 52/44/4
f 8/10/6 17/9/6 19/45/6 11/46/6
f 11/46/7 19/45/7 20/47/7 10/48/7
f 10/48/8 20/47/8 21/49/8 9/50/8
f 9/50/9 21/49/9 18/51/9 7/52/9
f 13/18/10 8/17/10 11/53/10 16/54/10
f 16/54/11 11/53/11 10/55/11 15/56/11
f 15/56/12 10/55/12 9/57/12 14/58/12
f 14/58/13 9/57/13 7/38/13 12/37/13
f 23/14/14 13/13/14 16/59/14 26/60/14
f 26/60/15 16/59/15 15/61/15 25/62/15
f 25/62/16 15/61/16 14/63/16 24/64/16
f 24/64/17 14/63/17 12/34/17 22/33/17
f 17/22/18 23/21/18 26/65/18 19/66/18
f 19/66/19 26/65/19 25/67/19 20/68/19
f 20/68/20 25/67/20 24/69/20 21/70/20
f 21/70/21 24/69/21 22/30/21 18/29/21
f 47/71/22 5/72/22 6/73/22 53/74/22
f 28/75/23 37/76/23 39/77/23 31/78/23
f 31/78/16 39/77/16 40/79/16 30/80/16
f 30/80/24 40/79/24 41/81/24 29/82/24
f 29/82/25 41/81/25 38/83/25 27/84/25
f 33/40/26 28/39/26 31/85/26 36/86/26
f 36/86/27 31/85/27 30/87/27 35/88/27
f 35/88/28 30/87/28 29/89/28 34/90/28
f 34/90/29 29/89/29 27/42/29 32/41/29
f 43/36/30 33/35/30 36/91/30 46/92/30
f 46/92/31 36/91/31 35/93/31 45/94/31
f 45/94/32 35/93/32 34/95/32 44/96/32
f 44/96/33 34/95/33 32/2/33 42/1/33
f 37/32/13 43/31/13 46/97/13 39/98/13
f 39/98/12 46/97/12 45/99/12 40/100/12
f 40/100/34 45/99/34 44/101/34 41/102/34
f 41/102/35 44/101/35 42/26/35 38/25/35
f 7/52/5 18/51/5 37/76/5 28/75/5
f 52/44/36 48/43/36 51/103/36 54/104/36
f 54/104/37 51/103/37 50/105/37 55/106/37
f 55/107/38 50/108/38 49/109/38 56/110/38
f 56/110/39 49/109/39 47/71/39 53/74/39
f 27/84/2 38/83/2 5/111/2 47/112/2 49/113/2 50/114/2 51/115/2 48/116/2
f 3/117/1 4/118/1 79/118/1 73/117/1
f 1/119/5 2/120/5 58/121/5 57/122/5
f 3/117/5 1/119/5 57/122/5 59/123/5
f 4/118/5 3/117/5 59/123/5 60/124/5
f 2/120/5 4/118/5 60/124/5 58/121/5
f 1/119/4 3/117/4 73/117/4 61/119/4
f 4/118/3 2/120/3 68/120/3 79/118/3
f 62/125/40 67/126/40 69/127/40 66/128/40
f 66/128/41 69/127/41 70/129/41 65/130/41
f 65/130/42 70/129/42 71/131/42 64/132/42
f 64/132/43 71/131/43 72/133/43 63/134/43
f 63/134/44 72/133/44 68/120/44 61/119/44
f 74/135/45 62/125/45 66/128/45 78/136/45
f 78/136/46 66/128/46 65/130/46 77/137/46
f 77/137/47 65/130/47 64/132/47 76/138/47
f 76/138/48 64/132/48 63/134/48 75/139/48
f 75/139/49 63/134/49 61/119/49 73/117/49
f 80/140/50 74/135/50 78/136/50 84/141/50
f 84/141/51 78/136/51 77/137/51 83/142/51
f 83/142/52 77/137/52 76/138/52 82/143/52
f 82/143/53 76/138/53 75/139/53 81/144/53
f 81/144/54 75/139/54 73/117/54 79/118/54
f 67/126/55 80/140/55 84/141/55 69/127/55
f 69/127/56 84/141/57 83/142/56 70/129/57
f 70/129/58 83/142/58 82/143/58 71/131/58
f 71/131/59 82/143/59 81/144/59 72/133/59
f 72/133/60 81/144/60 79/118/60 68/120/60
f 2/120/2 1/119/2 61/119/2 68/120/2
o Framed_modern_painting_3.001
v -0.499631 -0.434878 0.037038
v -0.499631 0.434924 0.037037
v 0.499424 -0.434878 0.037039
v 0.499424 0.434924 0.037038
vn -0.0000 -0.0000 1.0000
vt 0.002888 0.004667
vt 0.997111 0.004667
vt 0.997111 0.995333
vt 0.002888 0.995333
s 0
usemtl Material
f 85/145/61 87/146/61 88/147/61 86/148/61
